<?xml version="1.0" encoding="iso-8859-1"?>
<!-- Generator: Adobe Illustrator 15.0.0, SVG Export Plug-In . SVG Version: 6.00 Build 0)  -->
<!DOCTYPE svg PUBLIC "-//W3C//DTD SVG 1.1//EN" "http://www.w3.org/Graphics/SVG/1.1/DTD/svg11.dtd">
<svg version="1.1" id="Layer_1" xmlns="http://www.w3.org/2000/svg" xmlns:xlink="http://www.w3.org/1999/xlink" x="0px" y="0px"
	 width="149px" height="36px" viewBox="0 0 149 36" style="enable-background:new 0 0 149 36;" xml:space="preserve">
<g>
	<path d="M53.848,18.299c-0.386-0.216-0.813-0.383-1.27-0.506c-0.461-0.119-0.883-0.255-1.27-0.409
		c-0.387-0.149-0.712-0.347-0.971-0.589c-0.264-0.242-0.396-0.589-0.396-1.042c0-0.163,0.035-0.338,0.101-0.527
		c0.062-0.189,0.176-0.374,0.338-0.536c0.163-0.167,0.374-0.303,0.642-0.409s0.602-0.158,1.006-0.158c0.422,0,0.8,0.089,1.134,0.255
		c0.33,0.171,0.589,0.4,0.769,0.681l1.178-1.072c-0.404-0.492-0.875-0.822-1.406-0.98c-0.532-0.163-1.094-0.246-1.674-0.246
		c-0.646,0-1.2,0.101-1.657,0.299c-0.457,0.193-0.831,0.44-1.125,0.729c-0.294,0.294-0.505,0.615-0.642,0.967
		c-0.136,0.356-0.207,0.686-0.207,0.998c0,0.694,0.132,1.248,0.396,1.657c0.259,0.404,0.589,0.729,0.976,0.971
		s0.809,0.431,1.265,0.567c0.462,0.136,0.884,0.277,1.271,0.422c0.387,0.149,0.712,0.33,0.976,0.545
		c0.259,0.221,0.391,0.532,0.391,0.945c0,0.294-0.066,0.549-0.193,0.769c-0.132,0.22-0.299,0.409-0.51,0.563
		c-0.202,0.149-0.435,0.26-0.686,0.339c-0.255,0.074-0.501,0.109-0.738,0.109c-0.435,0-0.853-0.092-1.261-0.276
		s-0.743-0.475-1.006-0.866l-1.195,1.024c0.365,0.505,0.852,0.879,1.468,1.116c0.615,0.241,1.266,0.364,1.947,0.364
		c0.514,0,0.998-0.074,1.45-0.228c0.452-0.149,0.848-0.365,1.178-0.651c0.334-0.281,0.598-0.628,0.795-1.041
		c0.193-0.408,0.294-0.875,0.294-1.389c0-0.646-0.132-1.147-0.392-1.516C54.56,18.808,54.235,18.513,53.848,18.299"/>
	<polygon points="64.549,18.939 69.625,18.939 69.625,17.582 64.549,17.582 64.549,14.396 70.003,14.396 70.003,13.033 
		63.099,13.033 63.099,23.729 70.275,23.729 70.275,22.367 64.549,22.367 	"/>
	<path d="M81.421,13.033L76.71,23.729h1.691l1.06-2.646h5.089l1.072,2.646h1.691l-4.574-10.696H81.421z M79.971,19.814l2.025-4.904
		h0.031l1.995,4.904H79.971z"/>
	<path d="M99.729,19.106h2.373v2.976c-0.325,0.18-0.712,0.32-1.169,0.418c-0.462,0.096-0.945,0.14-1.459,0.14
		c-0.594,0-1.143-0.105-1.644-0.32c-0.506-0.22-0.945-0.519-1.318-0.901c-0.369-0.382-0.664-0.835-0.875-1.354
		c-0.211-0.514-0.316-1.077-0.316-1.683c0-0.584,0.093-1.134,0.286-1.652s0.466-0.971,0.817-1.354s0.773-0.686,1.27-0.914
		c0.488-0.224,1.046-0.338,1.657-0.338c0.545,0,1.063,0.083,1.56,0.25c0.492,0.163,0.958,0.457,1.402,0.883l1.028-1.103
		c-0.422-0.435-0.945-0.773-1.573-1.02c-0.624-0.25-1.429-0.369-2.417-0.369c-0.813,0-1.564,0.141-2.25,0.431
		c-0.686,0.286-1.271,0.681-1.758,1.182c-0.488,0.505-0.87,1.099-1.151,1.784c-0.272,0.686-0.413,1.425-0.413,2.219
		c0,0.756,0.132,1.472,0.387,2.153s0.628,1.279,1.116,1.789c0.492,0.515,1.09,0.923,1.797,1.227
		c0.711,0.303,1.521,0.452,2.426,0.452c0.321,0,0.668-0.021,1.033-0.062c0.369-0.039,0.729-0.105,1.09-0.188
		c0.355-0.084,0.703-0.189,1.037-0.308c0.329-0.123,0.624-0.264,0.888-0.427v-5.269h-3.823V19.106z"/>
	<path d="M115.289,13.033l-4.715,10.696h1.696l1.055-2.646h5.089l1.072,2.646h1.696l-4.579-10.696H115.289z M113.839,19.814
		l2.026-4.904h0.026l1.995,4.904H113.839z"/>
	<polygon points="125.713,14.396 129.154,14.396 129.154,23.729 130.604,23.729 130.604,14.396 134.05,14.396 134.05,13.033 
		125.713,13.033 	"/>
	<polygon points="142.781,18.939 147.857,18.939 147.857,17.582 142.781,17.582 142.781,14.396 148.235,14.396 148.235,13.033 
		141.331,13.033 141.331,23.729 148.508,23.729 148.508,22.367 142.781,22.367 	"/>
	<path style="fill-rule:evenodd;clip-rule:evenodd;fill:#6EB84A;" d="M18.917,36c-0.444-1.692-0.883-3.358-1.305-4.979
		c0.457-0.225,0.835-0.4,1.336-0.646c2.092-0.889,4.109-1.908,5.985-3.191c2.347-1.6,4.544-3.393,6.455-5.502
		c1.499-1.657,2.751-3.485,3.463-5.633c0.474-1.429,0.708-2.888,0.501-4.396c-0.176-1.248-0.633-2.386-1.341-3.432
		c-0.856-1.257-1.973-2.215-3.326-2.896c-1.696-0.857-3.502-1.173-5.388-1.121c-1.67,0.053-3.278,0.417-4.843,0.989
		c-2.883,1.055-5.524,2.558-8.055,4.263c-0.743,0.497-1.424,1.072-2.013,1.745c-0.316,0.369-0.566,0.778-0.667,1.261
		c-0.176,0.822,0.294,1.45,1.134,1.486c0.584,0.03,1.107-0.199,1.617-0.44c1.595-0.751,3.032-1.767,4.522-2.694
		c1.222-0.765,2.457-1.507,3.797-2.043c1.323-0.527,2.694-0.817,4.126-0.576c1.556,0.259,2.813,0.998,3.573,2.426
		c0.532,1.006,0.576,2.07,0.294,3.155c-0.316,1.235-1.033,2.237-1.881,3.16c-1.169,1.27-2.509,2.329-3.995,3.2
		c-1.56,0.913-3.103,1.854-4.698,2.693c-1.868,0.979-3.858,1.679-5.884,2.263c-1.701,0.497-3.432,0.717-5.199,0.563
		c-1.481-0.132-2.878-0.563-4.104-1.419c-1.112-0.773-1.934-1.798-2.426-3.063c-0.769-1.956-0.729-3.951-0.246-5.955
		c0.554-2.272,1.701-4.231,3.12-6.051C4.546,7.782,5.79,6.56,7.126,5.435c1.894-1.595,3.902-3.028,6.056-4.254
		C13.911,0.768,14.654,0.377,15.348,0c0.241,0.496,0.475,0.976,0.712,1.458c-0.646,0.347-1.279,0.678-1.903,1.024
		c-2.689,1.499-5.15,3.3-7.344,5.462c-1.191,1.169-2.197,2.492-2.961,3.986c-0.795,1.564-1.226,3.217-1.037,4.983
		c0.207,1.934,1.111,3.419,2.892,4.312c1.063,0.531,2.197,0.689,3.366,0.663c1.612-0.035,3.129-0.492,4.632-1.029
		c2.237-0.8,4.315-1.916,6.341-3.142c1.187-0.716,2.373-1.446,3.379-2.417c0.532-0.514,1.063-1.037,1.332-1.749
		c0.483-1.27-0.202-2.369-1.56-2.496c-0.743-0.075-1.411,0.171-2.065,0.475c-1.727,0.8-3.283,1.898-4.896,2.896
		c-1.23,0.765-2.475,1.507-3.828,2.039c-0.94,0.365-1.907,0.593-2.927,0.479c-1.745-0.202-2.839-1.578-2.646-3.331
		c0.149-1.371,0.817-2.496,1.718-3.494c0.997-1.107,2.167-2.013,3.419-2.813c1.92-1.23,3.872-2.408,5.959-3.34
		c2.421-1.085,4.904-1.947,7.567-2.18c1.93-0.171,3.833-0.062,5.713,0.426c1.661,0.431,3.195,1.134,4.575,2.153
		c1.367,1.015,2.465,2.272,3.3,3.757c0.751,1.34,1.178,2.777,1.305,4.311c0.132,1.608-0.057,3.19-0.523,4.729
		c-0.453,1.499-1.063,2.94-1.898,4.276c-1.165,1.863-2.531,3.555-4.126,5.066c-1.626,1.538-3.261,3.059-5.111,4.333
		c-2.404,1.657-4.909,3.134-7.616,4.245C20.393,35.38,19.676,35.683,18.917,36"/>
</g>
</svg>
